<svg width="47" height="34" viewBox="0 0 47 34" fill="none" xmlns="http://www.w3.org/2000/svg">
    <g clip-path="url(#clip0_64_902)">
        <path d="M38.2175 32.299C37.9797 32.299 37.7667 32.1268 37.7271 31.881L34.2595 9.77162C34.2199 9.53066 34.0168 9.35363 33.7691 9.35363H13.2314C12.9837 9.35363 12.7806 9.53066 12.741 9.77162L9.27344 31.881C9.22885 32.1465 8.97622 32.3285 8.70872 32.2891C8.43627 32.2498 8.25299 31.9941 8.29757 31.7285L11.7651 9.61918C11.879 8.8963 12.4982 8.37012 13.2314 8.37012H33.7691C34.5072 8.37012 35.1215 8.8963 35.2354 9.61918L38.7029 31.7285C38.7426 31.999 38.5593 32.2498 38.2918 32.2891C38.267 32.2891 38.2422 32.294 38.2125 32.294L38.2175 32.299Z" fill="#1D1D1D"/>
        <path d="M17.0901 32.3285C16.8176 32.3285 16.5947 32.1072 16.5947 31.8368V23.0884C16.5947 22.818 16.8176 22.5967 17.0901 22.5967C17.3625 22.5967 17.5855 22.818 17.5855 23.0884V31.8368C17.5855 32.1072 17.3625 32.3285 17.0901 32.3285Z" fill="#1D1D1D"/>
        <path d="M28.092 20.3693C27.8196 20.3693 27.5967 20.148 27.5967 19.8775V17.94C27.5967 17.6695 27.8196 17.4482 28.092 17.4482C28.3645 17.4482 28.5874 17.6695 28.5874 17.94V19.8775C28.5874 20.148 28.3645 20.3693 28.092 20.3693Z" fill="#1D1D1D"/>
        <path d="M28.092 32.304C27.8196 32.304 27.5967 32.0828 27.5967 31.8123V24.3179C27.5967 24.0475 27.8196 23.8262 28.092 23.8262C28.3645 23.8262 28.5874 24.0475 28.5874 24.3179V31.8123C28.5874 32.0828 28.3645 32.304 28.092 32.304Z" fill="#1D1D1D"/>
        <path d="M12.9389 34.0004C10.6305 34.0004 8.28748 33.248 8.28748 31.8072C8.28748 31.5367 8.51039 31.3154 8.78284 31.3154C9.05529 31.3154 9.2782 31.5367 9.2782 31.8072C9.2782 32.2891 10.7395 33.0169 12.9389 33.0169C15.1383 33.0169 16.5997 32.2891 16.5997 31.8072C16.5997 31.5367 16.8226 31.3154 17.095 31.3154C17.3675 31.3154 17.5904 31.5367 17.5904 31.8072C17.5904 33.248 15.2523 34.0004 12.9389 34.0004Z" fill="#1D1D1D"/>
        <path d="M22.5935 34.0004C19.7055 34.0004 16.5996 33.3169 16.5996 31.8072C16.5996 31.5367 16.8225 31.3154 17.095 31.3154C17.3674 31.3154 17.5903 31.5367 17.5903 31.8072C17.5903 32.1563 19.3439 33.0169 22.5935 33.0169C25.8431 33.0169 27.5967 32.1612 27.5967 31.8072C27.5967 31.5367 27.8196 31.3154 28.092 31.3154C28.3645 31.3154 28.5874 31.5367 28.5874 31.8072C28.5874 33.312 25.4815 34.0004 22.5935 34.0004Z" fill="#1D1D1D"/>
        <path d="M33.1546 34.0004C30.3955 34.0004 27.5967 33.248 27.5967 31.8072C27.5967 31.5367 27.8196 31.3154 28.092 31.3154C28.3645 31.3154 28.5874 31.5367 28.5874 31.8072C28.5874 32.1662 30.1428 33.0169 33.1546 33.0169C36.1665 33.0169 37.7219 32.1711 37.7219 31.8072C37.7219 31.5367 37.9448 31.3154 38.2173 31.3154C38.4897 31.3154 38.7126 31.5367 38.7126 31.8072C38.7126 33.248 35.9188 34.0004 33.1546 34.0004Z" fill="#1D1D1D"/>
        <path d="M10.9921 18.2048H2.5313C2.28362 18.2048 2.07061 18.0179 2.04089 17.7721L-2.77953e-06 1.52937C-0.0346782 1.25891 0.158513 1.01303 0.430963 0.978606C0.698458 0.944183 0.951093 1.13597 0.985769 1.40643L2.96722 17.2213H10.9921C11.2645 17.2213 11.4875 17.4426 11.4875 17.7131C11.4875 17.9835 11.2645 18.2048 10.9921 18.2048Z" fill="#1D1D1D"/>
        <path d="M3.0069 30.5331C2.98213 30.5331 2.95241 30.5331 2.92764 30.5282C2.66015 30.4839 2.47686 30.2331 2.51649 29.9626L4.54748 17.6343C4.59206 17.3639 4.8447 17.1868 5.11715 17.2262C5.38464 17.2704 5.56793 17.5212 5.5283 17.7917L3.49731 30.12C3.45768 30.361 3.24963 30.5331 3.0069 30.5331Z" fill="#1D1D1D"/>
        <path d="M31.0196 5.51255C29.6079 5.51255 28.4586 4.37168 28.4586 2.97017C28.4586 2.29155 28.7311 1.19001 29.1174 0.299936C29.1967 0.117987 29.375 0.00488281 29.5732 0.00488281H32.4711C32.6692 0.00488281 32.8475 0.122904 32.9268 0.299936C33.3132 1.19001 33.5856 2.29155 33.5856 2.97017C33.5856 4.37168 32.4364 5.51255 31.0246 5.51255H31.0196ZM29.9051 0.983477C29.6079 1.76045 29.4493 2.5571 29.4493 2.97017C29.4493 3.83074 30.1528 4.52904 31.0196 4.52904C31.8865 4.52904 32.5899 3.83074 32.5899 2.97017C32.5899 2.56201 32.4314 1.76045 32.1342 0.983477H29.9051Z" fill="#1D1D1D"/>
        <path d="M31.0197 9.35834C30.7472 9.35834 30.5243 9.13705 30.5243 8.86658V5.02105C30.5243 4.75059 30.7472 4.5293 31.0197 4.5293C31.2921 4.5293 31.515 4.75059 31.515 5.02105V8.86658C31.515 9.13705 31.2921 9.35834 31.0197 9.35834Z" fill="#1D1D1D"/>
        <path d="M15.9805 5.51255C14.5687 5.51255 13.4194 4.37168 13.4194 2.97017C13.4194 2.28663 13.6919 1.19001 14.0783 0.299936C14.1575 0.117987 14.3359 0.00488281 14.534 0.00488281H17.4319C17.63 0.00488281 17.8083 0.122904 17.8876 0.299936C18.274 1.19001 18.5464 2.29155 18.5464 2.97017C18.5464 4.37168 17.3972 5.51255 15.9854 5.51255H15.9805ZM14.8659 0.983477C14.5687 1.76045 14.4102 2.5571 14.4102 2.97017C14.4102 3.83074 15.1136 4.52904 15.9805 4.52904C16.8473 4.52904 17.5508 3.83074 17.5508 2.97017C17.5508 2.56201 17.3922 1.76045 17.095 0.983477H14.8659Z" fill="#1D1D1D"/>
        <path d="M15.9805 9.39276C15.708 9.39276 15.4851 9.17147 15.4851 8.90101V5.02105C15.4851 4.75059 15.708 4.5293 15.9805 4.5293C16.2529 4.5293 16.4758 4.75059 16.4758 5.02105V8.90101C16.4758 9.17147 16.2529 9.39276 15.9805 9.39276Z" fill="#1D1D1D"/>
        <path d="M25.6845 9.35822C25.4121 9.35822 25.1892 9.13693 25.1892 8.86646V6.22082H21.8108V8.83696C21.8108 9.10742 21.5879 9.32871 21.3154 9.32871C21.043 9.32871 20.8201 9.10742 20.8201 8.83696V5.72906C20.8201 5.45859 21.043 5.2373 21.3154 5.2373H25.6845C25.957 5.2373 26.1799 5.45859 26.1799 5.72906V8.86646C26.1799 9.13693 25.957 9.35822 25.6845 9.35822Z" fill="#1D1D1D"/>
        <path d="M23.5 3.79117C23.2276 3.79117 23.0046 3.56988 23.0046 3.29941V2.05035C23.0046 1.77988 23.2276 1.55859 23.5 1.55859C23.7725 1.55859 23.9954 1.77988 23.9954 2.05035V3.29941C23.9954 3.56988 23.7725 3.79117 23.5 3.79117Z" fill="#1D1D1D"/>
        <path d="M2.14988 15.1608C1.93688 15.1608 1.73873 15.0231 1.67433 14.8068C1.59508 14.5461 1.74864 14.2707 2.01118 14.197C2.244 14.1281 7.7128 12.5594 11.6906 13.5921C11.9531 13.661 12.1116 13.9314 12.0423 14.1921C11.9729 14.4527 11.7054 14.61 11.4379 14.5412C7.72767 13.5774 2.33812 15.1215 2.28858 15.1362C2.244 15.151 2.19447 15.1559 2.14988 15.1559V15.1608Z" fill="#1D1D1D"/>
        <path d="M44.4687 18.2048H36.0079C35.7355 18.2048 35.5126 17.9835 35.5126 17.7131C35.5126 17.4426 35.7355 17.2213 36.0079 17.2213H44.0328L46.0143 1.40643C46.0489 1.13597 46.2966 0.944183 46.5691 0.978606C46.8415 1.01303 47.0347 1.25891 47 1.52937L44.9641 17.777C44.9344 18.0229 44.7214 18.2097 44.4737 18.2097L44.4687 18.2048Z" fill="#1D1D1D"/>
        <path d="M43.9932 30.5331C43.7554 30.5331 43.5424 30.361 43.5028 30.12L41.4718 17.7917C41.4272 17.5261 41.6105 17.2704 41.8829 17.2262C42.1554 17.1868 42.408 17.3639 42.4526 17.6343L44.4836 29.9626C44.5282 30.2282 44.3449 30.4839 44.0724 30.5282C44.0477 30.5282 44.0179 30.5331 43.9932 30.5331Z" fill="#1D1D1D"/>
        <path d="M44.8501 15.1611C44.8055 15.1611 44.756 15.1562 44.7114 15.1414C44.6569 15.1267 39.2723 13.5776 35.562 14.5464C35.2995 14.6152 35.0271 14.4579 34.9577 14.1972C34.8884 13.9366 35.0469 13.6661 35.3094 13.5973C39.2921 12.5646 44.7609 14.1382 44.9888 14.2022C45.2513 14.2808 45.3999 14.5513 45.3256 14.8119C45.2612 15.0283 45.0631 15.166 44.8501 15.166V15.1611Z" fill="#1D1D1D"/>
    </g>
    <defs>
        <clipPath id="clip0_64_902">
            <rect width="47" height="34" fill="white"/>
        </clipPath>
    </defs>
</svg>
